<svg width="413" height="113" viewBox="0 0 413 113" fill="none" xmlns="http://www.w3.org/2000/svg">
<g clip-path="url(#clip0_69_123)">
<path d="M0 74.45V0H35.21C46.59 0 54.46 3 59.46 8.08C63.82 12.34 66.05 18.08 66.05 25.42V25.63C66.05 37 60 44.57 50.74 48.5L68.5 74.5L0 74.45Z" fill="black"/>
<path d="M92.1499 0H152V17.55H112.57V28.82H148.31V45.1H112.57V56.9H152.57V74.45H92.1499V0Z" fill="black"/>
<path d="M194.79 18.08H170.86V0H239.35V18.08H215.42V74.45H194.79V18.08Z" fill="black"/>
<path d="M258.15 0H318V17.55H278.57V28.82H314.31V45.1H278.57V56.9H318.57V74.45H258.15V0Z" fill="black"/>
<path d="M362.88 36.59L338.41 0H362.13L375.32 21L388.62 0H411.8L387.34 36.38L412.87 74.45H389.15L374.9 52L360.54 74.45H337.35L362.88 36.59Z" fill="black"/>
<path d="M27.6871 95.379C27.0806 96.1965 26.0258 96.5393 24.9974 96.5393C23.6789 96.5393 22.1758 95.9064 21.9648 94.4824H30.9834C31.0098 94.166 31.0361 93.665 31.0361 93.3485C31.0361 89.4721 28.2409 86.8615 24.7337 86.8615C21.2265 86.8615 18.2994 89.3403 18.2994 93.2431C18.2994 97.1194 21.2265 99.7037 24.7337 99.7037C26.8433 99.7037 29.0847 99.0445 30.3505 97.1986L27.6871 95.379ZM22.0176 92.1883C22.3077 90.6061 23.758 90.0787 24.7601 90.0787C25.8149 90.0787 27.1334 90.6852 27.3443 92.1883H22.0176ZM37.6284 84.7783H40.8983C43.7726 84.7783 45.2494 87.3889 45.2494 90.3951C45.2494 93.3749 43.7726 95.9328 40.8983 95.9328H37.6284V84.7783ZM40.8983 99.44C46.0932 99.44 49.0994 95.5636 49.0994 90.3951C49.0994 85.2266 46.0932 81.2711 40.8983 81.2711H33.7784V99.44H40.8983ZM60.4951 95.379C59.8886 96.1965 58.8338 96.5393 57.8054 96.5393C56.4869 96.5393 54.9838 95.9064 54.7728 94.4824H63.7914C63.8177 94.166 63.8441 93.665 63.8441 93.3485C63.8441 89.4721 61.0489 86.8615 57.5417 86.8615C54.0345 86.8615 51.1074 89.3403 51.1074 93.2431C51.1074 97.1194 54.0345 99.7037 57.5417 99.7037C59.6513 99.7037 61.8927 99.0445 63.1585 97.1986L60.4951 95.379ZM54.8256 92.1883C55.1156 90.6061 56.566 90.0787 57.5681 90.0787C58.6229 90.0787 59.9414 90.6852 60.1523 92.1883H54.8256ZM81.1414 87.1252H71.1208V86.2814C71.1208 84.8047 71.7273 83.9344 72.9931 83.9344H74.3379V80.4272H72.9931C69.4331 80.4272 67.429 82.4841 67.429 86.2814V87.1252H65.1084V90.0259H67.429V99.44H71.1208V90.0259H77.5023V99.44H81.1414V87.1252ZM77.0277 82.5632C77.0277 83.7499 78.0825 84.7255 79.3219 84.7255C80.5876 84.7255 81.5633 83.7499 81.5633 82.5632C81.5633 81.3238 80.5613 80.4272 79.3219 80.4272C78.0825 80.4272 77.0277 81.3502 77.0277 82.5632ZM88.1904 92.9266C88.1904 91.0543 89.1661 90.4215 90.4582 90.4215C91.6976 90.4215 92.5942 91.2126 92.5942 92.8739V99.44H96.2596V92.0828C96.2596 88.5756 94.5192 86.8615 91.7504 86.8615C90.2737 86.8615 88.8497 87.679 88.1904 88.9184V87.1252H84.525V99.44H88.1904V92.9266ZM108.162 95.379C107.555 96.1965 106.501 96.5393 105.472 96.5393C104.154 96.5393 102.651 95.9064 102.44 94.4824H111.458C111.485 94.166 111.511 93.665 111.511 93.3485C111.511 89.4721 108.716 86.8615 105.209 86.8615C101.701 86.8615 98.7743 89.3403 98.7743 93.2431C98.7743 97.1194 101.701 99.7037 105.209 99.7037C107.318 99.7037 109.56 99.0445 110.825 97.1986L108.162 95.379ZM102.492 92.1883C102.783 90.6061 104.233 90.0787 105.235 90.0787C106.29 90.0787 107.608 90.6852 107.819 92.1883H102.492ZM125.248 87.1252V82.405H121.609V87.1252H119.368V90.0259H121.609V99.44H125.248V90.0259H127.833V87.1252H125.248ZM133.746 92.9266C133.746 91.0543 135.038 90.4215 136.198 90.4215C137.332 90.4215 138.466 91.2653 138.466 92.8739V99.44H142.131V92.742C142.131 89.0239 140.47 86.8615 137.2 86.8615C136.04 86.8615 134.22 87.5208 133.746 89.0502V80.4272H130.08V99.44H133.746V92.9266ZM154 95.379C153.394 96.1965 152.339 96.5393 151.311 96.5393C149.992 96.5393 148.489 95.9064 148.278 94.4824H157.297C157.323 94.166 157.349 93.665 157.349 93.3485C157.349 89.4721 154.554 86.8615 151.047 86.8615C147.54 86.8615 144.613 89.3403 144.613 93.2431C144.613 97.1194 147.54 99.7037 151.047 99.7037C153.157 99.7037 155.398 99.0445 156.664 97.1986L154 95.379ZM148.331 92.1883C148.621 90.6061 150.071 90.0787 151.073 90.0787C152.128 90.0787 153.447 90.6852 153.658 92.1883H148.331ZM179.894 90.4215C180.976 90.4215 181.925 91.2653 181.925 92.8739V99.44H185.564V92.452C185.564 88.7338 183.771 86.8615 180.817 86.8615C179.921 86.8615 178.339 87.1252 177.126 89.0502C176.44 87.5999 175.121 86.8879 173.17 86.8879C171.825 86.8879 170.559 87.6262 169.953 88.9184V87.1252H166.287V99.44H169.953V92.9266C169.953 91.0543 170.955 90.4215 172.089 90.4215C173.144 90.4215 174.093 91.2126 174.119 92.7948V99.44H177.785V92.9266C177.785 91.1335 178.734 90.4215 179.894 90.4215ZM197.444 95.379C196.838 96.1965 195.783 96.5393 194.754 96.5393C193.436 96.5393 191.933 95.9064 191.722 94.4824H200.74C200.767 94.166 200.793 93.665 200.793 93.3485C200.793 89.4721 197.998 86.8615 194.491 86.8615C190.983 86.8615 188.056 89.3403 188.056 93.2431C188.056 97.1194 190.983 99.7037 194.491 99.7037C196.6 99.7037 198.842 99.0445 200.107 97.1986L197.444 95.379ZM191.774 92.1883C192.065 90.6061 193.515 90.0787 194.517 90.0787C195.572 90.0787 196.89 90.6852 197.101 92.1883H191.774ZM212.417 99.44H216.056V87.1252H212.417V88.4965C211.415 87.1516 209.648 86.8615 208.831 86.8615C205.693 86.8615 202.555 89.3403 202.555 93.2694C202.555 97.1986 205.693 99.6773 208.831 99.6773C209.754 99.6773 211.652 99.2027 212.417 98.0424V99.44ZM206.352 93.2694C206.352 91.5026 207.881 90.3424 209.437 90.3424C210.94 90.3424 212.417 91.4499 212.417 93.2694C212.417 95.1153 210.94 96.1965 209.437 96.1965C207.881 96.1965 206.352 95.0362 206.352 93.2694ZM223.105 92.9266C223.105 91.0543 224.081 90.4215 225.373 90.4215C226.612 90.4215 227.509 91.2126 227.509 92.8739V99.44H231.174V92.0828C231.174 88.5756 229.434 86.8615 226.665 86.8615C225.188 86.8615 223.764 87.679 223.105 88.9184V87.1252H219.439V99.44H223.105V92.9266ZM238.066 87.1252H234.427V99.44H238.066V87.1252ZM233.952 82.5632C233.952 83.7499 235.007 84.7255 236.247 84.7255C237.512 84.7255 238.488 83.7499 238.488 82.5632C238.488 81.3238 237.486 80.4272 236.247 80.4272C235.007 80.4272 233.952 81.3502 233.952 82.5632ZM245.097 92.9266C245.097 91.0543 246.073 90.4215 247.365 90.4215C248.604 90.4215 249.501 91.2126 249.501 92.8739V99.44H253.166V92.0828C253.166 88.5756 251.426 86.8615 248.657 86.8615C247.18 86.8615 245.756 87.679 245.097 88.9184V87.1252H241.432V99.44H245.097V92.9266ZM265.438 93.2431C265.438 95.0626 263.961 96.2492 262.458 96.2492C260.876 96.2492 259.505 95.0626 259.505 93.2431C259.505 91.5026 260.876 90.3424 262.458 90.3424C263.987 90.3424 265.438 91.4235 265.438 93.2431ZM256.05 101.761C257.105 104.055 259.399 105.584 262.115 105.584C266.466 105.584 269.077 103.026 269.077 97.726V87.1252H265.517V88.6547C264.884 87.5471 263.355 86.8615 261.825 86.8615C258.661 86.8615 255.681 89.3667 255.681 93.3222C255.681 97.2249 258.661 99.7037 261.825 99.7037C263.381 99.7037 264.91 99.0445 265.517 97.9105C265.649 100.337 264.937 102.288 262.115 102.288C260.876 102.288 259.425 101.47 259.004 100.31L256.05 101.761ZM284.544 96.0646C283.041 96.0646 281.775 94.9571 281.775 93.2431C281.775 91.5554 283.041 90.4478 284.544 90.4478C286.1 90.4478 287.339 91.5554 287.339 93.2431C287.339 94.9571 286.1 96.0646 284.544 96.0646ZM284.544 99.651C288.025 99.651 290.952 97.1194 290.952 93.2431C290.952 89.3403 288.025 86.8615 284.544 86.8615C281.037 86.8615 278.162 89.3403 278.162 93.2431C278.162 97.1194 281.037 99.651 284.544 99.651ZM301.728 80.4272H300.383C296.823 80.4272 294.819 82.4841 294.819 86.2814V87.1252H292.498V90.0259H294.819V99.44H298.511V90.0259H300.989V87.1252H298.511V86.2814C298.511 84.8047 299.117 83.9344 300.383 83.9344H301.728V80.4272ZM316.885 84.6728C318.362 84.6728 319.074 86.0968 319.074 87.2307C319.074 88.391 318.283 89.7886 316.78 89.7886H313.51V84.6728H316.885ZM318.573 93.0057C321.684 92.3728 323.108 89.7886 323.108 87.2307C323.108 84.2509 321.183 81.2711 317.07 81.2711H309.633V99.44H313.51V93.1639H314.38L318.441 99.44H323.082L318.573 93.0057ZM334.058 95.379C333.452 96.1965 332.397 96.5393 331.368 96.5393C330.05 96.5393 328.547 95.9064 328.336 94.4824H337.354C337.381 94.166 337.407 93.665 337.407 93.3485C337.407 89.4721 334.612 86.8615 331.105 86.8615C327.597 86.8615 324.67 89.3403 324.67 93.2431C324.67 97.1194 327.597 99.7037 331.105 99.7037C333.214 99.7037 335.456 99.0445 336.722 97.1986L334.058 95.379ZM328.389 92.1883C328.679 90.6061 330.129 90.0787 331.131 90.0787C332.186 90.0787 333.504 90.6852 333.715 92.1883H328.389ZM344.603 87.1252V82.405H340.964V87.1252H338.723V90.0259H340.964V99.44H344.603V90.0259H347.188V87.1252H344.603ZM358.379 99.44H362.018V87.1252H358.379V88.4965C357.377 87.1516 355.61 86.8615 354.793 86.8615C351.655 86.8615 348.517 89.3403 348.517 93.2694C348.517 97.1986 351.655 99.6773 354.793 99.6773C355.716 99.6773 357.614 99.2027 358.379 98.0424V99.44ZM352.314 93.2694C352.314 91.5026 353.843 90.3424 355.399 90.3424C356.902 90.3424 358.379 91.4499 358.379 93.2694C358.379 95.1153 356.902 96.1965 355.399 96.1965C353.843 96.1965 352.314 95.0362 352.314 93.2694ZM369.041 87.1252H365.402V99.44H369.041V87.1252ZM364.927 82.5632C364.927 83.7499 365.982 84.7255 367.221 84.7255C368.487 84.7255 369.463 83.7499 369.463 82.5632C369.463 81.3238 368.46 80.4272 367.221 80.4272C365.982 80.4272 364.927 81.3502 364.927 82.5632ZM372.406 80.4272V99.44H376.072V80.4272H372.406Z" fill="black"/>
</g>
<defs>
<clipPath id="clip0_69_123">
<rect width="412.87" height="112.67" fill="white"/>
</clipPath>
</defs>
</svg>
