<svg width="239" height="311" viewBox="0 0 239 311" fill="none" xmlns="http://www.w3.org/2000/svg">
<path d="M5.8 306.49L3.08 302.4H2.3V306.49H0V295.07H4.56C5.05902 295.036 5.55951 295.109 6.02793 295.285C6.49635 295.46 6.92189 295.734 7.27604 296.087C7.63018 296.44 7.90475 296.865 8.08135 297.333C8.25795 297.801 8.33249 298.301 8.3 298.8C8.30941 299.61 8.04184 300.398 7.54167 301.035C7.0415 301.671 6.33876 302.118 5.55 302.3L8.55 306.49H5.8ZM2.3 297.11V300.54H4.14C4.37212 300.565 4.60692 300.543 4.83011 300.474C5.0533 300.406 5.26019 300.292 5.43819 300.141C5.61619 299.99 5.76157 299.804 5.86546 299.595C5.96935 299.386 6.02959 299.158 6.04251 298.925C6.05542 298.692 6.02074 298.459 5.94057 298.239C5.86041 298.02 5.73644 297.819 5.57621 297.65C5.41599 297.48 5.22287 297.344 5.00862 297.252C4.79437 297.159 4.56347 297.111 4.33 297.11H2.3Z" fill="black"/>
<path d="M17.49 303.32H11.67C11.776 303.76 12.0361 304.147 12.403 304.411C12.77 304.675 13.2195 304.799 13.67 304.76C14.048 304.754 14.4207 304.67 14.7648 304.513C15.109 304.357 15.4171 304.131 15.67 303.85L17 305.13C16.5832 305.632 16.0581 306.034 15.4641 306.304C14.87 306.574 14.2224 306.706 13.57 306.69C12.4906 306.69 11.4553 306.261 10.6921 305.498C9.9288 304.735 9.5 303.699 9.5 302.62C9.5 301.541 9.9288 300.505 10.6921 299.742C11.4553 298.979 12.4906 298.55 13.57 298.55C14.095 298.532 14.6181 298.622 15.1075 298.813C15.5968 299.003 16.0422 299.292 16.4164 299.661C16.7907 300.029 17.0859 300.47 17.2843 300.957C17.4826 301.443 17.5798 301.965 17.57 302.49C17.54 302.71 17.52 303 17.49 303.32ZM15.35 301.91C15.3094 301.475 15.0983 301.075 14.7628 300.795C14.4273 300.516 13.9948 300.381 13.56 300.42C13.1166 300.391 12.6783 300.528 12.3294 300.803C11.9804 301.078 11.7456 301.472 11.67 301.91H15.35Z" fill="black"/>
<path d="M24 295.07C27.28 295.07 29.18 297.55 29.18 300.8C29.18 304.05 27.28 306.49 24 306.49H19.51V295.07H24ZM24 304.45C25.9 304.45 26.88 302.76 26.88 300.8C26.88 298.84 25.88 297.11 24 297.11H21.81V304.45H24Z" fill="black"/>
<path d="M38.59 303.32H32.77C32.876 303.76 33.1361 304.147 33.503 304.411C33.87 304.675 34.3195 304.799 34.77 304.76C35.148 304.754 35.5207 304.67 35.8649 304.513C36.209 304.357 36.5171 304.131 36.77 303.85L38.03 305.13C37.6133 305.632 37.0881 306.034 36.4941 306.304C35.9 306.574 35.2525 306.706 34.6 306.69C33.5206 306.69 32.4854 306.261 31.7221 305.498C30.9588 304.735 30.53 303.699 30.53 302.62C30.53 301.541 30.9588 300.505 31.7221 299.742C32.4854 298.979 33.5206 298.55 34.6 298.55C35.125 298.532 35.6481 298.622 36.1375 298.813C36.6269 299.003 37.0722 299.292 37.4464 299.661C37.8207 300.029 38.116 300.47 38.3143 300.957C38.5126 301.443 38.6098 301.965 38.6 302.49C38.64 302.71 38.62 303 38.59 303.32ZM36.45 301.91C36.4312 301.694 36.3699 301.484 36.2695 301.293C36.1692 301.101 36.0319 300.931 35.8654 300.792C35.699 300.654 35.5068 300.549 35.2999 300.486C35.0931 300.422 34.8756 300.399 34.66 300.42C34.2166 300.391 33.7783 300.528 33.4294 300.803C33.0805 301.078 32.8456 301.472 32.77 301.91H36.45Z" fill="black"/>
<path d="M48.45 298.75V306.49H46.28V300.44H43.13V306.49H41V300.44H39.5V298.75H41V298.18C41 295.86 42.19 294.54 44.4 294.54H44.91V296.54H44.6C43.52 296.54 43.17 297.12 43.17 297.93V298.73L48.45 298.75ZM46 296.08C46.0052 295.904 46.045 295.732 46.1173 295.572C46.1896 295.412 46.2929 295.267 46.4212 295.147C46.5495 295.027 46.7003 294.934 46.8648 294.873C47.0294 294.811 47.2045 294.783 47.38 294.79C47.5558 294.782 47.7315 294.809 47.8967 294.87C48.0618 294.931 48.2131 295.024 48.3417 295.144C48.4703 295.265 48.5735 295.409 48.6454 295.57C48.7172 295.731 48.7562 295.904 48.76 296.08C48.7575 296.257 48.7195 296.432 48.6484 296.595C48.5773 296.757 48.4744 296.903 48.3458 297.026C48.2172 297.148 48.0656 297.243 47.8997 297.305C47.7338 297.368 47.5571 297.397 47.38 297.39C47.0236 297.398 46.6785 297.265 46.42 297.019C46.1614 296.774 46.0105 296.436 46 296.08Z" fill="black"/>
<path d="M58.1999 302.25V306.49H55.9999V302.36C55.9999 301.15 55.2699 300.6 54.5199 300.6C54.2802 300.587 54.0406 300.626 53.8175 300.715C53.5945 300.804 53.3933 300.94 53.2279 301.114C53.0625 301.288 52.9368 301.495 52.8595 301.723C52.7821 301.95 52.755 302.191 52.7799 302.43V306.49H50.6399V298.75H52.8099V300C53.0194 299.563 53.3484 299.193 53.759 298.935C54.1695 298.677 54.6448 298.54 55.1299 298.54C57.1599 298.55 58.2199 299.93 58.1999 302.25Z" fill="black"/>
<path d="M67.9099 303.32H62.0999C62.2059 303.76 62.466 304.147 62.8329 304.411C63.1999 304.675 63.6494 304.799 64.0999 304.76C64.4779 304.754 64.8507 304.67 65.1948 304.513C65.5389 304.357 65.847 304.131 66.0999 303.85L67.3599 305.13C66.9506 305.623 66.4368 306.019 65.8556 306.288C65.2745 306.558 64.6406 306.695 63.9999 306.69C62.9205 306.69 61.8853 306.261 61.122 305.498C60.3587 304.735 59.9299 303.699 59.9299 302.62C59.9299 301.541 60.3587 300.505 61.122 299.742C61.8853 298.979 62.9205 298.55 63.9999 298.55C64.5253 298.531 65.049 298.619 65.5391 298.81C66.0291 299 66.475 299.289 66.8495 299.657C67.2241 300.026 67.5193 300.468 67.7171 300.955C67.9149 301.442 68.0112 301.964 67.9999 302.49C67.9863 302.768 67.9562 303.045 67.9099 303.32ZM65.7799 301.91C65.7369 301.475 65.5236 301.074 65.1865 300.795C64.8494 300.516 64.4158 300.381 63.9799 300.42C63.5377 300.392 63.1007 300.528 62.7534 300.804C62.4061 301.079 62.1733 301.473 62.0999 301.91H65.7799Z" fill="black"/>
<path d="M78.1399 298.75V300.44H76.4999V306.49H74.3299V300.44H72.9199V298.75H74.3299V295.93H76.4999V298.75H78.1399Z" fill="black"/>
<path d="M87.11 302.25V306.49H84.94V302.38C84.94 301.17 84.21 300.6 83.46 300.6C83.2204 300.587 82.9807 300.626 82.7577 300.715C82.5346 300.804 82.3335 300.94 82.1681 301.114C82.0027 301.288 81.877 301.495 81.7996 301.723C81.7223 301.95 81.6951 302.191 81.72 302.43V306.49H79.55V294.54H81.72V300C81.9232 299.567 82.2455 299.2 82.6493 298.944C83.053 298.687 83.5216 298.55 84 298.55C86.06 298.55 87.13 299.93 87.11 302.25Z" fill="black"/>
<path d="M96.82 303.32H91C91.106 303.76 91.3661 304.147 91.733 304.411C92.1 304.675 92.5495 304.799 93 304.76C93.378 304.754 93.7507 304.67 94.0948 304.513C94.439 304.357 94.7471 304.131 95 303.85L96.26 305.13C95.8433 305.632 95.3181 306.034 94.7241 306.304C94.13 306.574 93.4824 306.706 92.83 306.69C91.7506 306.69 90.7154 306.261 89.9521 305.498C89.1888 304.735 88.76 303.699 88.76 302.62C88.76 301.541 89.1888 300.505 89.9521 299.742C90.7154 298.979 91.7506 298.55 92.83 298.55C93.3554 298.531 93.8791 298.619 94.3691 298.81C94.8591 299 95.3051 299.289 95.6796 299.657C96.0542 300.026 96.3494 300.468 96.5472 300.955C96.745 301.442 96.8413 301.964 96.83 302.49C96.8429 302.767 96.8396 303.044 96.82 303.32ZM94.68 301.91C94.6612 301.694 94.5998 301.484 94.4995 301.293C94.3992 301.101 94.2618 300.931 94.0954 300.792C93.929 300.654 93.7368 300.549 93.5299 300.486C93.323 300.422 93.1055 300.399 92.89 300.42C92.4461 300.389 92.0066 300.524 91.6572 300.8C91.3078 301.075 91.0735 301.471 91 301.91H94.68Z" fill="black"/>
<path d="M114.88 302.25V306.49H112.69V302.31C112.69 301.1 112.06 300.59 111.29 300.59C110.37 300.59 109.77 301.23 109.77 302.68V306.49H107.6V302.34C107.6 301.12 106.97 300.59 106.24 300.59C105.51 300.59 104.66 301.02 104.66 302.41V306.49H102.49V298.75H104.66V300C104.837 299.567 105.141 299.198 105.532 298.941C105.923 298.684 106.382 298.551 106.85 298.56C107.369 298.538 107.883 298.671 108.326 298.941C108.769 299.212 109.122 299.608 109.34 300.08C109.593 299.617 109.966 299.232 110.42 298.964C110.875 298.696 111.393 298.557 111.92 298.56C113.86 298.55 114.88 299.93 114.88 302.25Z" fill="black"/>
<path d="M124.57 303.32H118.75C118.86 303.758 119.121 304.142 119.487 304.406C119.853 304.669 120.3 304.795 120.75 304.76C121.128 304.754 121.501 304.67 121.845 304.513C122.189 304.357 122.497 304.131 122.75 303.85L124.01 305.13C123.593 305.632 123.068 306.034 122.474 306.304C121.88 306.574 121.232 306.706 120.58 306.69C119.501 306.69 118.465 306.261 117.702 305.498C116.939 304.735 116.51 303.699 116.51 302.62C116.51 301.541 116.939 300.505 117.702 299.742C118.465 298.979 119.501 298.55 120.58 298.55C121.105 298.532 121.628 298.622 122.117 298.813C122.607 299.003 123.052 299.292 123.426 299.661C123.801 300.029 124.096 300.47 124.294 300.957C124.493 301.443 124.59 301.965 124.58 302.49C124.593 302.767 124.59 303.044 124.57 303.32ZM122.43 301.91C122.411 301.694 122.35 301.484 122.25 301.293C122.149 301.101 122.012 300.931 121.845 300.792C121.679 300.654 121.487 300.549 121.28 300.486C121.073 300.422 120.856 300.399 120.64 300.42C120.197 300.394 119.76 300.531 119.411 300.805C119.063 301.08 118.828 301.473 118.75 301.91H122.43Z" fill="black"/>
<path d="M132.11 298.75H134.29V306.49H132.11V305.38C131.824 305.79 131.442 306.124 130.998 306.352C130.553 306.58 130.06 306.696 129.56 306.69C128.53 306.612 127.568 306.146 126.868 305.386C126.169 304.626 125.783 303.63 125.789 302.597C125.796 301.564 126.194 300.572 126.903 299.821C127.612 299.07 128.579 298.616 129.61 298.55C130.096 298.532 130.579 298.635 131.015 298.85C131.451 299.065 131.827 299.384 132.11 299.78V298.75ZM132.05 302.63C132.058 302.362 132.012 302.096 131.915 301.846C131.818 301.597 131.672 301.369 131.486 301.177C131.299 300.985 131.076 300.832 130.829 300.728C130.583 300.624 130.318 300.57 130.05 300.57C129.508 300.57 128.987 300.785 128.604 301.169C128.22 301.552 128.005 302.073 128.005 302.615C128.005 303.157 128.22 303.678 128.604 304.061C128.987 304.445 129.508 304.66 130.05 304.66C130.315 304.66 130.578 304.607 130.822 304.505C131.067 304.403 131.289 304.253 131.475 304.064C131.661 303.875 131.808 303.651 131.906 303.405C132.005 303.158 132.054 302.895 132.05 302.63Z" fill="black"/>
<path d="M144 302.25V306.49H141.83V302.36C141.83 301.15 141.1 300.6 140.36 300.6C140.12 300.585 139.879 300.623 139.656 300.712C139.432 300.8 139.23 300.936 139.064 301.11C138.898 301.284 138.773 301.493 138.696 301.721C138.619 301.949 138.593 302.191 138.62 302.43V306.49H136.44V298.75H138.62V300C138.827 299.561 139.156 299.19 139.567 298.932C139.978 298.673 140.454 298.537 140.94 298.54C143 298.55 144.05 299.93 144 302.25Z" fill="black"/>
<path d="M145.82 296.08C145.825 295.904 145.865 295.732 145.937 295.572C146.01 295.412 146.113 295.267 146.241 295.147C146.37 295.027 146.52 294.934 146.685 294.873C146.849 294.811 147.025 294.783 147.2 294.79C147.375 294.783 147.55 294.812 147.714 294.873C147.878 294.934 148.028 295.028 148.155 295.148C148.283 295.268 148.385 295.412 148.456 295.572C148.528 295.732 148.566 295.905 148.57 296.08C148.567 296.256 148.53 296.43 148.459 296.592C148.389 296.754 148.287 296.9 148.159 297.022C148.032 297.144 147.881 297.239 147.717 297.302C147.552 297.365 147.376 297.395 147.2 297.39C146.844 297.398 146.499 297.265 146.24 297.019C145.982 296.774 145.831 296.436 145.82 296.08ZM146.12 306.49V298.75H148.29V306.49H146.12Z" fill="black"/>
<path d="M158 302.25V306.49H155.83V302.36C155.83 301.15 155.1 300.6 154.35 300.6C154.11 300.585 153.869 300.623 153.646 300.712C153.422 300.8 153.22 300.936 153.054 301.11C152.888 301.284 152.763 301.493 152.686 301.721C152.609 301.949 152.583 302.191 152.61 302.43V306.49H150.44V298.75H152.61V300C152.819 299.563 153.148 299.193 153.559 298.935C153.97 298.677 154.445 298.54 154.93 298.54C157 298.55 158.06 299.93 158 302.25Z" fill="black"/>
<path d="M166 298.75H168.17V305.53C168.17 308.91 166.46 310.53 163.73 310.53C162.94 310.54 162.164 310.322 161.495 309.901C160.826 309.481 160.293 308.876 159.96 308.16L161.77 307.39C161.956 307.758 162.243 308.066 162.597 308.278C162.951 308.491 163.357 308.599 163.77 308.59C165.16 308.59 166.04 307.81 166.04 305.81V305.59C165.736 305.954 165.354 306.245 164.924 306.444C164.493 306.643 164.024 306.744 163.55 306.74C162.52 306.668 161.555 306.208 160.851 305.452C160.147 304.697 159.755 303.703 159.755 302.67C159.755 301.637 160.147 300.643 160.851 299.888C161.555 299.132 162.52 298.672 163.55 298.6C164.023 298.59 164.492 298.686 164.923 298.882C165.354 299.077 165.736 299.367 166.04 299.73L166 298.75ZM165.93 302.61C165.92 302.217 165.794 301.835 165.569 301.513C165.343 301.191 165.027 300.942 164.661 300.798C164.295 300.655 163.895 300.622 163.51 300.705C163.125 300.787 162.774 300.982 162.499 301.263C162.224 301.545 162.039 301.901 161.965 302.288C161.892 302.674 161.935 303.074 162.087 303.436C162.24 303.799 162.496 304.108 162.824 304.326C163.152 304.544 163.536 304.66 163.93 304.66C164.193 304.654 164.451 304.595 164.692 304.489C164.932 304.382 165.149 304.229 165.33 304.039C165.511 303.849 165.653 303.624 165.747 303.379C165.841 303.134 165.887 302.873 165.88 302.61H165.93Z" fill="black"/>
<path d="M173.77 302.63C173.75 301.803 173.977 300.989 174.422 300.292C174.867 299.595 175.509 299.046 176.268 298.716C177.026 298.386 177.865 298.289 178.679 298.438C179.492 298.587 180.243 298.975 180.834 299.553C181.426 300.13 181.832 300.871 182.001 301.681C182.17 302.491 182.094 303.332 181.782 304.098C181.47 304.864 180.937 305.52 180.251 305.981C179.565 306.443 178.757 306.69 177.93 306.69C177.388 306.705 176.849 306.611 176.344 306.413C175.839 306.215 175.379 305.919 174.991 305.54C174.603 305.161 174.295 304.709 174.086 304.209C173.876 303.709 173.768 303.172 173.77 302.63ZM179.89 302.63C179.953 302.338 179.95 302.036 179.881 301.746C179.812 301.455 179.679 301.184 179.491 300.952C179.304 300.72 179.067 300.532 178.797 300.404C178.528 300.275 178.233 300.208 177.935 300.208C177.637 300.208 177.342 300.275 177.073 300.404C176.803 300.532 176.566 300.72 176.379 300.952C176.191 301.184 176.058 301.455 175.989 301.746C175.92 302.036 175.917 302.338 175.98 302.63C175.917 302.922 175.92 303.224 175.989 303.514C176.058 303.805 176.191 304.076 176.379 304.308C176.566 304.54 176.803 304.728 177.073 304.856C177.342 304.985 177.637 305.052 177.935 305.052C178.233 305.052 178.528 304.985 178.797 304.856C179.067 304.728 179.304 304.54 179.491 304.308C179.679 304.076 179.812 303.805 179.881 303.514C179.95 303.224 179.953 302.922 179.89 302.63Z" fill="black"/>
<path d="M188.24 296.56C188.019 296.528 187.793 296.547 187.581 296.616C187.368 296.685 187.175 296.801 187.014 296.957C186.854 297.112 186.731 297.303 186.656 297.513C186.581 297.723 186.555 297.948 186.58 298.17V298.75H188.28V300.44H186.58V306.49H184.41V300.44H183V298.75H184.46V298.18C184.46 295.86 185.66 294.54 187.86 294.54H188.79V296.54L188.24 296.56Z" fill="black"/>
<path d="M199.63 306.49L196.91 302.4H196.13V306.49H193.83V295.07H198.39C198.889 295.036 199.39 295.109 199.858 295.285C200.326 295.46 200.752 295.734 201.106 296.087C201.46 296.44 201.735 296.865 201.911 297.333C202.088 297.801 202.163 298.301 202.13 298.8C202.139 299.61 201.872 300.398 201.372 301.035C200.872 301.671 200.169 302.118 199.38 302.3L202.38 306.49H199.63ZM196.13 297.11V300.54H198C198.232 300.565 198.467 300.543 198.69 300.474C198.913 300.406 199.12 300.292 199.298 300.141C199.476 299.99 199.622 299.804 199.726 299.595C199.829 299.386 199.89 299.158 199.903 298.925C199.916 298.692 199.881 298.459 199.801 298.239C199.72 298.02 199.597 297.819 199.436 297.65C199.276 297.48 199.083 297.344 198.869 297.252C198.654 297.159 198.424 297.111 198.19 297.11H196.13Z" fill="black"/>
<path d="M211.32 303.32H205.5C205.606 303.76 205.866 304.147 206.233 304.411C206.6 304.675 207.05 304.799 207.5 304.76C207.878 304.753 208.25 304.669 208.594 304.513C208.939 304.356 209.247 304.131 209.5 303.85L210.76 305.13C210.343 305.632 209.818 306.033 209.224 306.303C208.63 306.573 207.982 306.705 207.33 306.69C206.251 306.69 205.215 306.261 204.452 305.498C203.689 304.735 203.26 303.699 203.26 302.62C203.26 301.541 203.689 300.505 204.452 299.742C205.215 298.979 206.251 298.55 207.33 298.55C207.855 298.532 208.378 298.622 208.867 298.813C209.357 299.003 209.802 299.292 210.176 299.661C210.551 300.029 210.846 300.47 211.044 300.957C211.243 301.443 211.34 301.965 211.33 302.49C211.37 302.71 211.35 303 211.32 303.32ZM209.18 301.91C209.139 301.475 208.928 301.075 208.593 300.795C208.257 300.516 207.825 300.381 207.39 300.42C206.947 300.391 206.508 300.528 206.159 300.803C205.81 301.078 205.576 301.472 205.5 301.91H209.18Z" fill="black"/>
<path d="M217.48 298.75V300.44H215.84V306.49H213.67V300.44H212.26V298.75H213.67V295.93H215.84V298.75H217.48Z" fill="black"/>
<path d="M224.53 298.75H226.7V306.49H224.53V305.38C224.244 305.789 223.862 306.123 223.417 306.351C222.973 306.579 222.48 306.696 221.98 306.69C220.95 306.612 219.988 306.146 219.289 305.386C218.589 304.626 218.203 303.63 218.21 302.597C218.216 301.564 218.614 300.572 219.323 299.821C220.032 299.07 220.999 298.616 222.03 298.55C222.515 298.538 222.996 298.643 223.432 298.857C223.867 299.071 224.244 299.388 224.53 299.78V298.75ZM224.46 302.63C224.468 302.362 224.422 302.096 224.325 301.846C224.229 301.597 224.082 301.369 223.896 301.177C223.709 300.985 223.486 300.832 223.24 300.728C222.993 300.624 222.728 300.57 222.46 300.57C221.918 300.57 221.398 300.785 221.014 301.169C220.631 301.553 220.415 302.073 220.415 302.615C220.415 303.157 220.631 303.678 221.014 304.061C221.398 304.445 221.918 304.66 222.46 304.66C222.725 304.66 222.988 304.607 223.232 304.505C223.477 304.403 223.699 304.253 223.885 304.064C224.071 303.875 224.218 303.651 224.317 303.405C224.415 303.158 224.464 302.895 224.46 302.63Z" fill="black"/>
<path d="M228.59 296.08C228.595 295.904 228.635 295.732 228.707 295.572C228.78 295.412 228.883 295.267 229.011 295.147C229.14 295.027 229.29 294.934 229.455 294.873C229.62 294.811 229.795 294.783 229.97 294.79C230.145 294.783 230.32 294.812 230.484 294.873C230.648 294.934 230.798 295.028 230.925 295.148C231.053 295.268 231.155 295.412 231.226 295.572C231.298 295.732 231.336 295.905 231.34 296.08C231.338 296.256 231.3 296.43 231.229 296.592C231.159 296.754 231.057 296.9 230.929 297.022C230.802 297.144 230.651 297.239 230.487 297.302C230.322 297.365 230.146 297.395 229.97 297.39C229.614 297.398 229.269 297.265 229.01 297.019C228.752 296.774 228.601 296.436 228.59 296.08ZM228.89 306.49V298.75H231.06V306.49H228.89Z" fill="black"/>
<path d="M233.25 306.49V294.54H235.42V306.49H233.25Z" fill="black"/>
<path d="M43.8201 32H35.6001V42.91H43.8801C48.1501 42.91 50.6101 40.83 50.6101 37.53V37.4C50.6101 33.85 48.0001 32 43.8201 32Z" fill="black"/>
<path d="M238.37 94.31C238.367 69.2965 228.429 45.3084 210.741 27.6222C193.053 9.93588 169.063 -1.40584e-07 144.05 0L1.87988 0V282.8H238.37L185.37 179.1C201.264 171.356 214.661 159.299 224.032 144.307C233.403 129.315 238.372 111.99 238.37 94.31ZM64.7199 88.05H50.1599V122.35H37.6099V88.05H22.9999V77H64.7199V88.05ZM50.2199 66.46L41.0999 52.74H35.5999V66.46H22.9999V21.16H44.4699C51.3899 21.16 56.1799 22.97 59.2199 26.08C61.8699 28.67 63.2199 32.16 63.2199 36.63V36.76C63.2199 43.68 59.5299 48.28 53.8999 50.67L64.7199 66.46H50.2199ZM108 122.35H71.2199V77H107.66V87.72H83.6599V94.58H105.4V104.48H83.6499V111.67H108V122.35ZM108 66.46H71.2199V21.16H107.66V31.84H83.6599V38.7H105.4V48.6H83.6499V55.78H108V66.46ZM146 122.35L137.33 108.69L128.59 122.35H114.48L130.02 99.35L115.13 77H129.56L137.56 89.75L145.68 77H159.78L144.9 99.18L160.43 122.35H146Z" fill="black"/>
</svg>
